<svg width="346" height="18" viewBox="0 0 346 18" fill="none" xmlns="http://www.w3.org/2000/svg">
<path d="M1.615 3.778H0V6.001H1.615V11.131C1.615 13.525 2.489 14 4.997 14H6.992V11.739H6.099C5.054 11.739 4.75 11.549 4.75 10.58V6.001H6.992V3.778H4.75V0.984999H1.615V3.778ZM10.7892 5.127V0.225H7.6542V14H10.7892V8.756C10.7892 6.875 11.3782 5.982 12.7082 5.982C14.2282 5.982 14.2662 7.179 14.2662 8.642V14H17.4012V7.863C17.4012 5.089 16.5842 3.55 13.9622 3.55C12.3662 3.55 11.2452 4.367 10.7892 5.127ZM18.455 3.778V14H21.609V3.778H18.455ZM18.455 0.225V2.733H21.59V0.225H18.455ZM32.0694 6.78C31.6704 4.462 29.5614 3.512 27.2244 3.512C24.6974 3.512 22.5504 4.614 22.5504 6.666C22.5504 8.471 23.8994 9.478 25.8754 9.801L27.6994 10.105C28.8774 10.314 29.2954 10.599 29.2954 11.055C29.2954 11.663 28.4974 11.967 27.3954 11.967C26.3124 11.967 25.5144 11.663 25.2484 10.675H22.3414C22.7024 13.069 24.6594 14.247 27.3574 14.247C30.1884 14.247 32.2974 13.088 32.2974 10.789C32.2974 8.984 31.1384 8.262 28.6684 7.806L26.7684 7.464C25.8754 7.293 25.5144 7.027 25.5144 6.552C25.5144 6.077 26.0844 5.792 27.1484 5.792C28.1364 5.792 28.9534 6.02 29.1434 6.78H32.0694ZM39.13 3.778H35.995V17.325H39.13V12.632C39.795 13.753 41.144 14.247 42.265 14.247C44.887 14.247 46.768 12.233 46.768 8.889C46.768 5.545 44.887 3.55 42.265 3.55C41.144 3.55 39.795 4.044 39.13 5.165V3.778ZM41.239 5.982C42.493 5.982 43.519 6.989 43.519 8.889C43.519 10.789 42.493 11.815 41.239 11.815C40.004 11.815 38.978 10.998 38.978 8.889C38.978 6.78 40.004 5.982 41.239 5.982ZM53.6034 7.616C49.6324 7.901 46.8014 8.737 46.8014 11.245C46.8014 13.107 48.3974 14.247 50.3354 14.247C51.7984 14.247 53.0144 13.848 53.7744 12.765L53.8124 14H56.8904C56.7004 13.126 56.6434 11.302 56.6624 9.972L56.7004 7.749C56.7574 4.633 55.0664 3.455 52.1404 3.455C49.1194 3.455 47.2574 5.165 47.1244 7.084H50.0504C50.1644 6.096 50.8674 5.583 51.8744 5.583C52.9954 5.583 53.6034 6.02 53.6034 7.217V7.616ZM53.6794 9.459V9.706C53.6794 11.587 52.7294 12.119 51.4754 12.119C50.6584 12.119 50.0314 11.682 50.0314 11.017C50.0314 9.934 51.4944 9.649 53.6794 9.459ZM64.6814 5.165C64.0164 4.044 62.6484 3.55 61.5274 3.55C58.9054 3.55 57.0244 5.336 57.0244 8.585C57.0244 11.834 58.9054 13.639 61.5274 13.639C62.6484 13.639 64.0164 13.145 64.6814 12.024V13.24C64.6814 14.57 64.0924 15.368 62.5154 15.368C61.3754 15.368 60.6344 14.931 60.3874 14.057H57.4424C57.7654 15.938 59.5324 17.572 62.5534 17.572C65.3844 17.572 67.7974 16.413 67.7974 12.632V3.778H64.6814V5.165ZM62.5534 5.982C63.7884 5.982 64.8144 6.571 64.8144 8.585C64.8144 10.58 63.7884 11.207 62.5534 11.207C61.2994 11.207 60.2734 10.39 60.2734 8.585C60.2734 6.78 61.2994 5.982 62.5534 5.982ZM76.2478 10.789C75.8868 11.397 75.1268 11.815 73.9488 11.815C72.8088 11.815 71.6878 11.131 71.5928 9.687H79.1738C79.3828 6.058 77.2928 3.474 73.9108 3.474C70.9278 3.474 68.4388 5.564 68.4388 8.832C68.4388 12.214 70.7188 14.247 74.0438 14.247C76.0958 14.247 78.2238 13.202 79.1358 10.789H76.2478ZM73.9108 5.868C75.0888 5.868 76.0198 6.514 76.0578 7.787H71.6308C71.8018 6.438 72.8088 5.868 73.9108 5.868ZM82.911 3.778V14H86.065V3.778H82.911ZM82.911 0.225V2.733H86.046V0.225H82.911ZM96.5255 6.78C96.1265 4.462 94.0175 3.512 91.6805 3.512C89.1535 3.512 87.0065 4.614 87.0065 6.666C87.0065 8.471 88.3555 9.478 90.3315 9.801L92.1555 10.105C93.3335 10.314 93.7515 10.599 93.7515 11.055C93.7515 11.663 92.9535 11.967 91.8515 11.967C90.7685 11.967 89.9705 11.663 89.7045 10.675H86.7975C87.1585 13.069 89.1155 14.247 91.8135 14.247C94.6445 14.247 96.7535 13.088 96.7535 10.789C96.7535 8.984 95.5945 8.262 93.1245 7.806L91.2245 7.464C90.3315 7.293 89.9705 7.027 89.9705 6.552C89.9705 6.077 90.5405 5.792 91.6045 5.792C92.5925 5.792 93.4095 6.02 93.5995 6.78H96.5255ZM105.068 3.474C101.971 3.474 99.8431 5.602 99.8431 8.832C99.8431 12.081 101.705 14.247 105.068 14.247C107.12 14.247 109.552 13.297 110.274 10.238H107.348C107.12 11.207 106.417 11.815 105.258 11.815C104.156 11.815 103.035 11.074 103.035 8.851C103.035 6.685 104.137 5.906 105.258 5.906C106.189 5.906 106.949 6.343 107.215 7.521H110.141C109.533 4.443 107.196 3.474 105.068 3.474ZM117.096 14H120.231V3.778H117.096V9.174C117.096 11.055 116.583 11.815 115.253 11.815C113.733 11.815 113.695 10.618 113.695 9.155V3.778H110.56V9.934C110.56 12.708 111.377 14.247 114.094 14.247C115.671 14.247 116.469 13.582 117.096 12.575V14ZM127.785 3.721C127.633 3.702 127.462 3.702 127.31 3.702C125.847 3.759 124.992 4.519 124.517 5.716V3.778H121.496V14H124.631V8.87C124.631 7.274 125.429 6.723 126.93 6.723C127.215 6.723 127.443 6.742 127.785 6.78V3.721ZM134.411 3.721C134.259 3.702 134.088 3.702 133.936 3.702C132.473 3.759 131.618 4.519 131.143 5.716V3.778H128.122V14H131.257V8.87C131.257 7.274 132.055 6.723 133.556 6.723C133.841 6.723 134.069 6.742 134.411 6.78V3.721ZM141.949 10.789C141.588 11.397 140.828 11.815 139.65 11.815C138.51 11.815 137.389 11.131 137.294 9.687H144.875C145.084 6.058 142.994 3.474 139.612 3.474C136.629 3.474 134.14 5.564 134.14 8.832C134.14 12.214 136.42 14.247 139.745 14.247C141.797 14.247 143.925 13.202 144.837 10.789H141.949ZM139.612 5.868C140.79 5.868 141.721 6.514 141.759 7.787H137.332C137.503 6.438 138.51 5.868 139.612 5.868ZM148.665 3.778H145.53V14H148.665V8.756C148.665 6.875 149.235 5.982 150.565 5.982C152.085 5.982 152.142 7.179 152.142 8.642V14H155.277V7.863C155.277 5.089 154.46 3.55 151.838 3.55C150.242 3.55 149.121 4.367 148.665 5.127V3.778ZM156.825 3.778H155.21V6.001H156.825V11.131C156.825 13.525 157.699 14 160.207 14H162.202V11.739H161.309C160.264 11.739 159.96 11.549 159.96 10.58V6.001H162.202V3.778H159.96V0.984999H156.825V3.778ZM165.999 0.225H162.864V14H165.999V0.225ZM168.366 17.325C171.026 17.325 171.786 16.603 172.812 14L176.821 3.778H173.458L171.444 10.181L169.563 3.778H166.124L169.943 13.943L169.848 14.209C169.544 14.988 169.297 15.064 167.986 15.064H167.359V17.325H168.366ZM186.36 14H189.495V3.778H186.36V9.174C186.36 11.055 185.847 11.815 184.517 11.815C182.997 11.815 182.959 10.618 182.959 9.155V3.778H179.824V9.934C179.824 12.708 180.641 14.247 183.358 14.247C184.935 14.247 185.733 13.582 186.36 12.575V14ZM193.895 3.778H190.76V14H193.895V8.756C193.895 6.875 194.465 5.982 195.795 5.982C197.315 5.982 197.372 7.179 197.372 8.642V14H200.507V7.863C200.507 5.089 199.69 3.55 197.068 3.55C195.472 3.55 194.351 4.367 193.895 5.127V3.778ZM208.533 0.225V5.165C207.868 4.044 206.519 3.55 205.398 3.55C202.776 3.55 200.895 5.545 200.895 8.889C200.895 12.233 202.776 14.247 205.398 14.247C206.519 14.247 207.868 13.753 208.533 12.632V14H211.668V0.225H208.533ZM206.424 5.982C207.659 5.982 208.685 6.78 208.685 8.889C208.685 10.998 207.659 11.815 206.424 11.815C205.17 11.815 204.144 10.789 204.144 8.889C204.144 6.989 205.17 5.982 206.424 5.982ZM220.119 10.789C219.758 11.397 218.998 11.815 217.82 11.815C216.68 11.815 215.559 11.131 215.464 9.687H223.045C223.254 6.058 221.164 3.474 217.782 3.474C214.799 3.474 212.31 5.564 212.31 8.832C212.31 12.214 214.59 14.247 217.915 14.247C219.967 14.247 222.095 13.202 223.007 10.789H220.119ZM217.782 5.868C218.96 5.868 219.891 6.514 219.929 7.787H215.502C215.673 6.438 216.68 5.868 217.782 5.868ZM229.989 3.721C229.837 3.702 229.666 3.702 229.514 3.702C228.051 3.759 227.196 4.519 226.721 5.716V3.778H223.7V14H226.835V8.87C226.835 7.274 227.633 6.723 229.134 6.723C229.419 6.723 229.647 6.742 229.989 6.78V3.721ZM238.025 3.474C234.928 3.474 232.8 5.602 232.8 8.832C232.8 12.081 234.662 14.247 238.025 14.247C240.077 14.247 242.509 13.297 243.231 10.238H240.305C240.077 11.207 239.374 11.815 238.215 11.815C237.113 11.815 235.992 11.074 235.992 8.851C235.992 6.685 237.094 5.906 238.215 5.906C239.146 5.906 239.906 6.343 240.172 7.521H243.098C242.49 4.443 240.153 3.474 238.025 3.474ZM248.626 5.906C249.861 5.906 250.849 6.685 250.849 8.851C250.849 10.998 249.899 11.815 248.626 11.815C247.353 11.815 246.403 10.998 246.403 8.851C246.403 6.685 247.391 5.906 248.626 5.906ZM248.626 3.474C245.795 3.474 243.211 5.146 243.211 8.851C243.211 12.556 245.795 14.247 248.626 14.247C251.457 14.247 254.041 12.556 254.041 8.851C254.041 5.146 251.457 3.474 248.626 3.474ZM257.811 3.778H254.676V14H257.811V8.756C257.811 6.875 258.381 5.982 259.711 5.982C261.231 5.982 261.288 7.179 261.288 8.642V14H264.423V7.863C264.423 5.089 263.606 3.55 260.984 3.55C259.388 3.55 258.267 4.367 257.811 5.127V3.778ZM274.691 6.78C274.292 4.462 272.183 3.512 269.846 3.512C267.319 3.512 265.172 4.614 265.172 6.666C265.172 8.471 266.521 9.478 268.497 9.801L270.321 10.105C271.499 10.314 271.917 10.599 271.917 11.055C271.917 11.663 271.119 11.967 270.017 11.967C268.934 11.967 268.136 11.663 267.87 10.675H264.963C265.324 13.069 267.281 14.247 269.979 14.247C272.81 14.247 274.919 13.088 274.919 10.789C274.919 8.984 273.76 8.262 271.29 7.806L269.39 7.464C268.497 7.293 268.136 7.027 268.136 6.552C268.136 6.077 268.706 5.792 269.77 5.792C270.758 5.792 271.575 6.02 271.765 6.78H274.691ZM276.122 3.778H274.507V6.001H276.122V11.131C276.122 13.525 276.996 14 279.504 14H281.499V11.739H280.606C279.561 11.739 279.257 11.549 279.257 10.58V6.001H281.499V3.778H279.257V0.984999H276.122V3.778ZM288.45 3.721C288.298 3.702 288.127 3.702 287.975 3.702C286.512 3.759 285.657 4.519 285.182 5.716V3.778H282.161V14H285.296V8.87C285.296 7.274 286.094 6.723 287.595 6.723C287.88 6.723 288.108 6.742 288.45 6.78V3.721ZM295.114 14H298.249V3.778H295.114V9.174C295.114 11.055 294.601 11.815 293.271 11.815C291.751 11.815 291.713 10.618 291.713 9.155V3.778H288.578V9.934C288.578 12.708 289.395 14.247 292.112 14.247C293.689 14.247 294.487 13.582 295.114 12.575V14ZM304.131 3.474C301.034 3.474 298.906 5.602 298.906 8.832C298.906 12.081 300.768 14.247 304.131 14.247C306.183 14.247 308.615 13.297 309.337 10.238H306.411C306.183 11.207 305.48 11.815 304.321 11.815C303.219 11.815 302.098 11.074 302.098 8.851C302.098 6.685 303.2 5.906 304.321 5.906C305.252 5.906 306.012 6.343 306.278 7.521H309.204C308.596 4.443 306.259 3.474 304.131 3.474ZM310.419 3.778H308.804V6.001H310.419V11.131C310.419 13.525 311.293 14 313.801 14H315.796V11.739H314.903C313.858 11.739 313.554 11.549 313.554 10.58V6.001H315.796V3.778H313.554V0.984999H310.419V3.778ZM316.458 3.778V14H319.612V3.778H316.458ZM316.458 0.225V2.733H319.593V0.225H316.458ZM325.664 5.906C326.899 5.906 327.887 6.685 327.887 8.851C327.887 10.998 326.937 11.815 325.664 11.815C324.391 11.815 323.441 10.998 323.441 8.851C323.441 6.685 324.429 5.906 325.664 5.906ZM325.664 3.474C322.833 3.474 320.249 5.146 320.249 8.851C320.249 12.556 322.833 14.247 325.664 14.247C328.495 14.247 331.079 12.556 331.079 8.851C331.079 5.146 328.495 3.474 325.664 3.474ZM334.849 3.778H331.714V14H334.849V8.756C334.849 6.875 335.419 5.982 336.749 5.982C338.269 5.982 338.326 7.179 338.326 8.642V14H341.461V7.863C341.461 5.089 340.644 3.55 338.022 3.55C336.426 3.55 335.305 4.367 334.849 5.127V3.778ZM345.895 14V10.618H342.361V14H345.895Z" fill="black"/>
</svg>
