<svg width="275" height="28" viewBox="0 0 275 28" fill="none" xmlns="http://www.w3.org/2000/svg">
<path d="M5.72 5.86H0.77V27.25H5.72V19.84C6.77 21.61 8.9 22.39 10.67 22.39C14.81 22.39 17.78 19.21 17.78 13.93C17.78 8.65 14.81 5.5 10.67 5.5C8.9 5.5 6.77 6.28 5.72 8.05V5.86ZM9.05 9.34C11.03 9.34 12.65 10.93 12.65 13.93C12.65 16.93 11.03 18.55 9.05 18.55C7.1 18.55 5.48 17.26 5.48 13.93C5.48 10.6 7.1 9.34 9.05 9.34ZM29.2117 5.77C28.9717 5.74 28.7017 5.74 28.4617 5.74C26.1517 5.83 24.8017 7.03 24.0517 8.92V5.86H19.2817V22H24.2317V13.9C24.2317 11.38 25.4917 10.51 27.8617 10.51C28.3117 10.51 28.6717 10.54 29.2117 10.6V5.77ZM40.0463 11.92C33.7763 12.37 29.3063 13.69 29.3063 17.65C29.3063 20.59 31.8263 22.39 34.8863 22.39C37.1963 22.39 39.1163 21.76 40.3163 20.05L40.3763 22H45.2363C44.9362 20.62 44.8463 17.74 44.8763 15.64L44.9362 12.13C45.0263 7.21 42.3563 5.35 37.7363 5.35C32.9663 5.35 30.0263 8.05 29.8163 11.08H34.4363C34.6163 9.52 35.7263 8.71 37.3163 8.71C39.0863 8.71 40.0463 9.4 40.0463 11.29V11.92ZM40.1663 14.83V15.22C40.1663 18.19 38.6663 19.03 36.6863 19.03C35.3963 19.03 34.4063 18.34 34.4063 17.29C34.4063 15.58 36.7163 15.13 40.1663 14.83ZM47.0766 5.86V22H52.0566V5.86H47.0766ZM47.0766 0.249999V4.21H52.0266V0.249999H47.0766ZM69.152 10.6C68.522 6.94 65.192 5.44 61.502 5.44C57.512 5.44 54.122 7.18 54.122 10.42C54.122 13.27 56.252 14.86 59.372 15.37L62.252 15.85C64.112 16.18 64.772 16.63 64.772 17.35C64.772 18.31 63.512 18.79 61.772 18.79C60.062 18.79 58.802 18.31 58.382 16.75H53.792C54.362 20.53 57.452 22.39 61.712 22.39C66.182 22.39 69.512 20.56 69.512 16.93C69.512 14.08 67.682 12.94 63.782 12.22L60.782 11.68C59.372 11.41 58.802 10.99 58.802 10.24C58.802 9.49 59.702 9.04 61.382 9.04C62.942 9.04 64.232 9.4 64.532 10.6H69.152ZM82.5795 16.93C82.0095 17.89 80.8095 18.55 78.9495 18.55C77.1495 18.55 75.3795 17.47 75.2295 15.19H87.1995C87.5295 9.46 84.2295 5.38 78.8895 5.38C74.1795 5.38 70.2495 8.68 70.2495 13.84C70.2495 19.18 73.8495 22.39 79.0995 22.39C82.3395 22.39 85.6995 20.74 87.1395 16.93H82.5795ZM78.8895 9.16C80.7495 9.16 82.2195 10.18 82.2795 12.19H75.2895C75.5595 10.06 77.1495 9.16 78.8895 9.16ZM93.6235 22V16.66H88.0435V22H93.6235ZM102.903 9.22C104.853 9.22 106.413 10.45 106.413 13.87C106.413 17.26 104.913 18.55 102.903 18.55C100.893 18.55 99.393 17.26 99.393 13.87C99.393 10.45 100.953 9.22 102.903 9.22ZM102.903 5.38C98.433 5.38 94.353 8.02 94.353 13.87C94.353 19.72 98.433 22.39 102.903 22.39C107.373 22.39 111.453 19.72 111.453 13.87C111.453 8.02 107.373 5.38 102.903 5.38ZM117.984 13.6C117.984 10.75 118.854 9.34 120.864 9.34C123.234 9.34 123.354 11.23 123.354 13.54V22H128.304V13.6C128.304 10.75 129.174 9.34 131.184 9.34C133.554 9.34 133.674 11.23 133.674 13.54V22H138.624V12.31C138.624 7.93 137.334 5.5 133.194 5.5C130.914 5.5 128.904 6.43 127.674 8.23C126.924 6.46 125.454 5.5 122.874 5.5C120.444 5.5 118.704 6.79 117.984 7.99V5.86H113.034V22H117.984V13.6ZM148.452 9.22C150.402 9.22 151.962 10.45 151.962 13.87C151.962 17.26 150.462 18.55 148.452 18.55C146.442 18.55 144.942 17.26 144.942 13.87C144.942 10.45 146.502 9.22 148.452 9.22ZM148.452 5.38C143.982 5.38 139.902 8.02 139.902 13.87C139.902 19.72 143.982 22.39 148.452 22.39C152.922 22.39 157.002 19.72 157.002 13.87C157.002 8.02 152.922 5.38 148.452 5.38ZM169.857 8.05C168.807 6.28 166.647 5.5 164.877 5.5C160.737 5.5 157.767 8.32 157.767 13.45C157.767 18.58 160.737 21.43 164.877 21.43C166.647 21.43 168.807 20.65 169.857 18.88V20.8C169.857 22.9 168.927 24.16 166.437 24.16C164.637 24.16 163.467 23.47 163.077 22.09H158.427C158.937 25.06 161.727 27.64 166.497 27.64C170.967 27.64 174.777 25.81 174.777 19.84V5.86H169.857V8.05ZM166.497 9.34C168.447 9.34 170.067 10.27 170.067 13.45C170.067 16.6 168.447 17.59 166.497 17.59C164.517 17.59 162.897 16.3 162.897 13.45C162.897 10.6 164.517 9.34 166.497 9.34ZM185.609 9.34C187.589 9.34 189.209 10.93 189.209 13.93C189.209 16.93 187.589 18.55 185.609 18.55C183.659 18.55 182.039 17.26 182.039 13.93C182.039 10.6 183.659 9.34 185.609 9.34ZM182.279 0.249999H177.329V22H182.279V19.84C183.329 21.61 185.459 22.39 187.229 22.39C191.369 22.39 194.339 19.21 194.339 13.93C194.339 8.65 191.369 5.5 187.229 5.5C185.459 5.5 183.329 6.28 182.279 8.05V0.249999ZM207.445 16.93C206.875 17.89 205.675 18.55 203.815 18.55C202.015 18.55 200.245 17.47 200.095 15.19H212.065C212.395 9.46 209.095 5.38 203.755 5.38C199.045 5.38 195.115 8.68 195.115 13.84C195.115 19.18 198.715 22.39 203.965 22.39C207.205 22.39 210.565 20.74 212.005 16.93H207.445ZM203.755 9.16C205.615 9.16 207.085 10.18 207.145 12.19H200.155C200.425 10.06 202.015 9.16 203.755 9.16ZM218.628 13.6C218.628 10.75 219.498 9.34 221.508 9.34C223.878 9.34 223.998 11.23 223.998 13.54V22H228.948V13.6C228.948 10.75 229.818 9.34 231.828 9.34C234.198 9.34 234.318 11.23 234.318 13.54V22H239.268V12.31C239.268 7.93 237.978 5.5 233.838 5.5C231.558 5.5 229.548 6.43 228.318 8.23C227.568 6.46 226.098 5.5 223.518 5.5C221.088 5.5 219.348 6.79 218.628 7.99V5.86H213.678V22H218.628V13.6ZM252.876 16.93C252.306 17.89 251.106 18.55 249.246 18.55C247.446 18.55 245.676 17.47 245.526 15.19H257.496C257.826 9.46 254.526 5.38 249.186 5.38C244.476 5.38 240.546 8.68 240.546 13.84C240.546 19.18 244.146 22.39 249.396 22.39C252.636 22.39 255.996 20.74 257.436 16.93H252.876ZM249.186 9.16C251.046 9.16 252.516 10.18 252.576 12.19H245.586C245.856 10.06 247.446 9.16 249.186 9.16ZM264.06 7.99V0.249999H259.11V22H264.06V13.72C264.06 10.75 264.99 9.34 267.09 9.34C269.49 9.34 269.55 11.23 269.55 13.54V22H274.5V12.31C274.5 7.93 273.21 5.5 269.07 5.5C266.55 5.5 264.78 6.79 264.06 7.99Z" fill="black"/>
</svg>
